<svg xmlns="http://www.w3.org/2000/svg" viewBox="0 0 64 64" role="img" aria-label="Earth">
  <title>Earth</title>
  <circle cx="32" cy="32" r="30" fill="#3B82F6" stroke="#1E3A8A" stroke-width="2"/>
  <!-- Simple continents -->
  <path d="M22 18c4 0 6 2 8 4s4 3 7 3c2 0 3 2 2 4-1 2-3 3-6 3-3 0-6-1-8-3-2-2-5-2-7-1-2 1-3 0-3-2 0-3 3-8 7-8z" fill="#34D399" opacity="0.9"/>
  <path d="M42 38c3 0 5 2 6 4 1 2 0 4-2 5-3 2-7 3-10 2-3-1-6-3-6-5 0-2 3-3 6-4 2-1 4-2 6-2z" fill="#34D399" opacity="0.9"/>
  <!-- Lat/long hints -->
  <g stroke="#60A5FA" stroke-width="0.8" opacity="0.6">
    <circle cx="32" cy="32" r="22" fill="none"/>
    <circle cx="32" cy="32" r="14" fill="none"/>
    <path d="M10 32h44"/>
    <path d="M32 10v44"/>
  </g>
</svg>